[{"instrument": "Unknown", "notes": [{"pitch": 43, "startTime": 0, "duration": 256, "velocity": 80}, {"pitch": 45, "startTime": 256, "duration": 256, "velocity": 48}, {"pitch": 45, "startTime": 512, "duration": 256, "velocity": 48}, {"pitch": 45, "startTime": 768, "duration": 256, "velocity": 80}, {"pitch": 45, "startTime": 1024, "duration": 256, "velocity": 48}, {"pitch": 30, "startTime": 1280, "duration": 256, "velocity": 80}, {"pitch": 30, "startTime": 1536, "duration": 256, "velocity": 48}, {"pitch": 31, "startTime": 1792, "duration": 256, "velocity": 48}, {"pitch": 31, "startTime": 2048, "duration": 256, "velocity": 80}, {"pitch": 33, "startTime": 2304, "duration": 256, "velocity": 48}, {"pitch": 33, "startTime": 2560, "duration": 256, "velocity": 80}, {"pitch": 35, "startTime": 2816, "duration": 256, "velocity": 48}, {"pitch": 37, "startTime": 3072, "duration": 256, "velocity": 48}, {"pitch": 38, "startTime": 3328, "duration": 256, "velocity": 80}, {"pitch": 40, "startTime": 3584, "duration": 256, "velocity": 48}, {"pitch": 42, "startTime": 3840, "duration": 256, "velocity": 80}, {"pitch": 43, "startTime": 4096, "duration": 256, "velocity": 48}, {"pitch": 45, "startTime": 4352, "duration": 256, "velocity": 48}, {"pitch": 45, "startTime": 4608, "duration": 256, "velocity": 80}, {"pitch": 45, "startTime": 4864, "duration": 256, "velocity": 48}, {"pitch": 31, "startTime": 5120, "duration": 256, "velocity": 80}, {"pitch": 31, "startTime": 5376, "duration": 256, "velocity": 48}, {"pitch": 31, "startTime": 5632, "duration": 256, "velocity": 48}, {"pitch": 31, "startTime": 5888, "duration": 256, "velocity": 80}, {"pitch": 33, "startTime": 6144, "duration": 256, "velocity": 48}, {"pitch": 35, "startTime": 6400, "duration": 256, "velocity": 80}, {"pitch": 35, "startTime": 6656, "duration": 256, "velocity": 48}, {"pitch": 37, "startTime": 6912, "duration": 256, "velocity": 48}, {"pitch": 38, "startTime": 7168, "duration": 256, "velocity": 80}, {"pitch": 40, "startTime": 7424, "duration": 256, "velocity": 48}, {"pitch": 40, "startTime": 7680, "duration": 256, "velocity": 80}, {"pitch": 40, "startTime": 7936, "duration": 256, "velocity": 48}, {"pitch": 40, "startTime": 8192, "duration": 256, "velocity": 48}, {"pitch": 42, "startTime": 8448, "duration": 256, "velocity": 80}, {"pitch": 43, "startTime": 8704, "duration": 256, "velocity": 48}, {"pitch": 43, "startTime": 8960, "duration": 256, "velocity": 80}, {"pitch": 42, "startTime": 9216, "duration": 256, "velocity": 48}, {"pitch": 42, "startTime": 9472, "duration": 256, "velocity": 48}, {"pitch": 42, "startTime": 9728, "duration": 256, "velocity": 80}, {"pitch": 42, "startTime": 9984, "duration": 256, "velocity": 48}, {"pitch": 40, "startTime": 10240, "duration": 256, "velocity": 80}, {"pitch": 38, "startTime": 10496, "duration": 256, "velocity": 48}, {"pitch": 37, "startTime": 10752, "duration": 256, "velocity": 48}, {"pitch": 37, "startTime": 11008, "duration": 256, "velocity": 80}, {"pitch": 35, "startTime": 11264, "duration": 256, "velocity": 48}, {"pitch": 35, "startTime": 11520, "duration": 256, "velocity": 80}, {"pitch": 35, "startTime": 11776, "duration": 256, "velocity": 48}, {"pitch": 35, "startTime": 12032, "duration": 256, "velocity": 48}, {"pitch": 33, "startTime": 12288, "duration": 256, "velocity": 80}, {"pitch": 33, "startTime": 12544, "duration": 256, "velocity": 48}, {"pitch": 31, "startTime": 12800, "duration": 256, "velocity": 80}, {"pitch": 30, "startTime": 13056, "duration": 256, "velocity": 48}, {"pitch": 30, "startTime": 13312, "duration": 256, "velocity": 48}, {"pitch": 35, "startTime": 13568, "duration": 256, "velocity": 80}, {"pitch": 33, "startTime": 13824, "duration": 256, "velocity": 48}, {"pitch": 33, "startTime": 14080, "duration": 256, "velocity": 80}, {"pitch": 31, "startTime": 14336, "duration": 256, "velocity": 48}, {"pitch": 30, "startTime": 14592, "duration": 256, "velocity": 48}, {"pitch": 30, "startTime": 14848, "duration": 256, "velocity": 80}, {"pitch": 30, "startTime": 15104, "duration": 256, "velocity": 48}, {"pitch": 42, "startTime": 15360, "duration": 256, "velocity": 80}, {"pitch": 42, "startTime": 15616, "duration": 256, "velocity": 48}, {"pitch": 42, "startTime": 15872, "duration": 256, "velocity": 48}, {"pitch": 42, "startTime": 16128, "duration": 256, "velocity": 80}, {"pitch": 40, "startTime": 16384, "duration": 256, "velocity": 48}, {"pitch": 38, "startTime": 16640, "duration": 256, "velocity": 80}, {"pitch": 37, "startTime": 16896, "duration": 256, "velocity": 48}, {"pitch": 35, "startTime": 17152, "duration": 256, "velocity": 48}, {"pitch": 35, "startTime": 17408, "duration": 256, "velocity": 80}, {"pitch": 35, "startTime": 17664, "duration": 256, "velocity": 48}, {"pitch": 35, "startTime": 17920, "duration": 256, "velocity": 80}, {"pitch": 35, "startTime": 18176, "duration": 256, "velocity": 48}, {"pitch": 37, "startTime": 18432, "duration": 256, "velocity": 48}, {"pitch": 38, "startTime": 18688, "duration": 256, "velocity": 80}, {"pitch": 38, "startTime": 18944, "duration": 256, "velocity": 48}, {"pitch": 38, "startTime": 19200, "duration": 256, "velocity": 80}, {"pitch": 40, "startTime": 19456, "duration": 256, "velocity": 48}, {"pitch": 40, "startTime": 19712, "duration": 256, "velocity": 48}, {"pitch": 42, "startTime": 19968, "duration": 256, "velocity": 80}, {"pitch": 43, "startTime": 20224, "duration": 256, "velocity": 48}, {"pitch": 45, "startTime": 20480, "duration": 256, "velocity": 80}, {"pitch": 45, "startTime": 20736, "duration": 256, "velocity": 48}, {"pitch": 38, "startTime": 20992, "duration": 256, "velocity": 48}, {"pitch": 38, "startTime": 21248, "duration": 256, "velocity": 80}, {"pitch": 40, "startTime": 21504, "duration": 256, "velocity": 48}, {"pitch": 40, "startTime": 21760, "duration": 256, "velocity": 80}, {"pitch": 42, "startTime": 22016, "duration": 256, "velocity": 48}, {"pitch": 43, "startTime": 22272, "duration": 256, "velocity": 48}, {"pitch": 43, "startTime": 22528, "duration": 256, "velocity": 80}, {"pitch": 43, "startTime": 22784, "duration": 256, "velocity": 48}, {"pitch": 43, "startTime": 23040, "duration": 256, "velocity": 80}, {"pitch": 43, "startTime": 23296, "duration": 256, "velocity": 48}, {"pitch": 45, "startTime": 23552, "duration": 256, "velocity": 48}, {"pitch": 33, "startTime": 23808, "duration": 256, "velocity": 80}, {"pitch": 33, "startTime": 24064, "duration": 256, "velocity": 48}, {"pitch": 35, "startTime": 24320, "duration": 256, "velocity": 80}, {"pitch": 35, "startTime": 24576, "duration": 256, "velocity": 48}, {"pitch": 35, "startTime": 24832, "duration": 256, "velocity": 48}, {"pitch": 37, "startTime": 25088, "duration": 256, "velocity": 80}, {"pitch": 38, "startTime": 25344, "duration": 256, "velocity": 48}, {"pitch": 40, "startTime": 25600, "duration": 256, "velocity": 80}, {"pitch": 42, "startTime": 25856, "duration": 256, "velocity": 48}, {"pitch": 42, "startTime": 26112, "duration": 256, "velocity": 48}, {"pitch": 43, "startTime": 26368, "duration": 256, "velocity": 80}, {"pitch": 45, "startTime": 26624, "duration": 256, "velocity": 48}, {"pitch": 45, "startTime": 26880, "duration": 256, "velocity": 80}, {"pitch": 45, "startTime": 27136, "duration": 256, "velocity": 48}, {"pitch": 37, "startTime": 27392, "duration": 256, "velocity": 48}, {"pitch": 37, "startTime": 27648, "duration": 256, "velocity": 80}, {"pitch": 38, "startTime": 27904, "duration": 256, "velocity": 48}, {"pitch": 38, "startTime": 28160, "duration": 256, "velocity": 80}, {"pitch": 38, "startTime": 28416, "duration": 256, "velocity": 48}, {"pitch": 38, "startTime": 28672, "duration": 256, "velocity": 48}, {"pitch": 38, "startTime": 28928, "duration": 256, "velocity": 80}, {"pitch": 40, "startTime": 29184, "duration": 256, "velocity": 48}, {"pitch": 42, "startTime": 29440, "duration": 256, "velocity": 80}, {"pitch": 42, "startTime": 29696, "duration": 256, "velocity": 48}, {"pitch": 42, "startTime": 29952, "duration": 256, "velocity": 48}, {"pitch": 43, "startTime": 30208, "duration": 256, "velocity": 80}, {"pitch": 45, "startTime": 30464, "duration": 256, "velocity": 48}, {"pitch": 45, "startTime": 30720, "duration": 256, "velocity": 80}, {"pitch": 45, "startTime": 30976, "duration": 256, "velocity": 48}, {"pitch": 33, "startTime": 31232, "duration": 256, "velocity": 48}, {"pitch": 33, "startTime": 31488, "duration": 256, "velocity": 80}, {"pitch": 33, "startTime": 31744, "duration": 256, "velocity": 48}, {"pitch": 35, "startTime": 32000, "duration": 256, "velocity": 80}, {"pitch": 37, "startTime": 32256, "duration": 256, "velocity": 48}, {"pitch": 38, "startTime": 32512, "duration": 256, "velocity": 48}, {"pitch": 38, "startTime": 32768, "duration": 256, "velocity": 80}, {"pitch": 40, "startTime": 33024, "duration": 256, "velocity": 48}, {"pitch": 40, "startTime": 33280, "duration": 256, "velocity": 80}, {"pitch": 40, "startTime": 33536, "duration": 256, "velocity": 48}, {"pitch": 38, "startTime": 33792, "duration": 256, "velocity": 48}, {"pitch": 37, "startTime": 34048, "duration": 256, "velocity": 80}, {"pitch": 38, "startTime": 34304, "duration": 256, "velocity": 48}, {"pitch": 40, "startTime": 34560, "duration": 256, "velocity": 80}, {"pitch": 42, "startTime": 34816, "duration": 256, "velocity": 48}, {"pitch": 42, "startTime": 35072, "duration": 256, "velocity": 48}, {"pitch": 42, "startTime": 35328, "duration": 256, "velocity": 80}, {"pitch": 42, "startTime": 35584, "duration": 256, "velocity": 48}, {"pitch": 43, "startTime": 35840, "duration": 256, "velocity": 80}, {"pitch": 45, "startTime": 36096, "duration": 256, "velocity": 48}, {"pitch": 45, "startTime": 36352, "duration": 256, "velocity": 48}, {"pitch": 45, "startTime": 36608, "duration": 256, "velocity": 80}, {"pitch": 45, "startTime": 36864, "duration": 256, "velocity": 48}, {"pitch": 45, "startTime": 37120, "duration": 256, "velocity": 80}, {"pitch": 45, "startTime": 37376, "duration": 256, "velocity": 48}, {"pitch": 45, "startTime": 37632, "duration": 256, "velocity": 48}, {"pitch": 45, "startTime": 37888, "duration": 256, "velocity": 80}, {"pitch": 45, "startTime": 38144, "duration": 256, "velocity": 48}, {"pitch": 45, "startTime": 38400, "duration": 256, "velocity": 80}, {"pitch": 37, "startTime": 38656, "duration": 256, "velocity": 48}, {"pitch": 38, "startTime": 38912, "duration": 256, "velocity": 48}, {"pitch": 38, "startTime": 39168, "duration": 256, "velocity": 80}, {"pitch": 40, "startTime": 39424, "duration": 256, "velocity": 48}, {"pitch": 42, "startTime": 39680, "duration": 256, "velocity": 80}, {"pitch": 43, "startTime": 39936, "duration": 256, "velocity": 48}, {"pitch": 42, "startTime": 40192, "duration": 256, "velocity": 48}, {"pitch": 40, "startTime": 40448, "duration": 256, "velocity": 80}, {"pitch": 38, "startTime": 40704, "duration": 256, "velocity": 48}, {"pitch": 38, "startTime": 40960, "duration": 256, "velocity": 80}, {"pitch": 38, "startTime": 41216, "duration": 256, "velocity": 48}, {"pitch": 37, "startTime": 41472, "duration": 256, "velocity": 48}, {"pitch": 35, "startTime": 41728, "duration": 256, "velocity": 80}, {"pitch": 35, "startTime": 41984, "duration": 256, "velocity": 48}, {"pitch": 33, "startTime": 42240, "duration": 256, "velocity": 80}, {"pitch": 31, "startTime": 42496, "duration": 256, "velocity": 48}, {"pitch": 31, "startTime": 42752, "duration": 256, "velocity": 48}, {"pitch": 30, "startTime": 43008, "duration": 256, "velocity": 80}, {"pitch": 35, "startTime": 43264, "duration": 256, "velocity": 48}, {"pitch": 33, "startTime": 43520, "duration": 256, "velocity": 80}, {"pitch": 33, "startTime": 43776, "duration": 256, "velocity": 48}, {"pitch": 31, "startTime": 44032, "duration": 256, "velocity": 48}, {"pitch": 30, "startTime": 44288, "duration": 256, "velocity": 80}, {"pitch": 33, "startTime": 44544, "duration": 256, "velocity": 48}, {"pitch": 31, "startTime": 44800, "duration": 256, "velocity": 80}, {"pitch": 31, "startTime": 45056, "duration": 256, "velocity": 48}, {"pitch": 30, "startTime": 45312, "duration": 256, "velocity": 48}, {"pitch": 35, "startTime": 45568, "duration": 256, "velocity": 80}, {"pitch": 33, "startTime": 45824, "duration": 256, "velocity": 48}, {"pitch": 31, "startTime": 46080, "duration": 256, "velocity": 80}, {"pitch": 31, "startTime": 46336, "duration": 256, "velocity": 48}, {"pitch": 31, "startTime": 46592, "duration": 256, "velocity": 48}, {"pitch": 31, "startTime": 46848, "duration": 256, "velocity": 80}, {"pitch": 30, "startTime": 47104, "duration": 256, "velocity": 48}, {"pitch": 30, "startTime": 47360, "duration": 256, "velocity": 80}, {"pitch": 37, "startTime": 47616, "duration": 256, "velocity": 48}, {"pitch": 38, "startTime": 47872, "duration": 256, "velocity": 48}, {"pitch": 38, "startTime": 48128, "duration": 256, "velocity": 80}, {"pitch": 40, "startTime": 48384, "duration": 256, "velocity": 48}, {"pitch": 42, "startTime": 48640, "duration": 256, "velocity": 80}, {"pitch": 42, "startTime": 48896, "duration": 256, "velocity": 48}, {"pitch": 42, "startTime": 49152, "duration": 256, "velocity": 48}, {"pitch": 42, "startTime": 49408, "duration": 256, "velocity": 80}, {"pitch": 43, "startTime": 49664, "duration": 256, "velocity": 48}, {"pitch": 43, "startTime": 49920, "duration": 256, "velocity": 80}, {"pitch": 45, "startTime": 50176, "duration": 256, "velocity": 48}, {"pitch": 45, "startTime": 50432, "duration": 256, "velocity": 48}, {"pitch": 45, "startTime": 50688, "duration": 256, "velocity": 80}, {"pitch": 45, "startTime": 50944, "duration": 256, "velocity": 48}, {"pitch": 35, "startTime": 51200, "duration": 256, "velocity": 80}, {"pitch": 35, "startTime": 51456, "duration": 256, "velocity": 48}, {"pitch": 33, "startTime": 51712, "duration": 256, "velocity": 48}, {"pitch": 31, "startTime": 51968, "duration": 256, "velocity": 80}, {"pitch": 30, "startTime": 52224, "duration": 256, "velocity": 48}, {"pitch": 37, "startTime": 52480, "duration": 256, "velocity": 80}, {"pitch": 37, "startTime": 52736, "duration": 256, "velocity": 48}, {"pitch": 37, "startTime": 52992, "duration": 256, "velocity": 48}, {"pitch": 37, "startTime": 53248, "duration": 256, "velocity": 80}, {"pitch": 37, "startTime": 53504, "duration": 256, "velocity": 48}, {"pitch": 35, "startTime": 53760, "duration": 256, "velocity": 80}, {"pitch": 33, "startTime": 54016, "duration": 256, "velocity": 48}, {"pitch": 33, "startTime": 54272, "duration": 256, "velocity": 48}, {"pitch": 31, "startTime": 54528, "duration": 256, "velocity": 80}, {"pitch": 31, "startTime": 54784, "duration": 256, "velocity": 48}, {"pitch": 31, "startTime": 55040, "duration": 256, "velocity": 80}, {"pitch": 31, "startTime": 55296, "duration": 256, "velocity": 48}, {"pitch": 31, "startTime": 55552, "duration": 256, "velocity": 48}, {"pitch": 31, "startTime": 55808, "duration": 256, "velocity": 80}, {"pitch": 31, "startTime": 56064, "duration": 256, "velocity": 48}, {"pitch": 31, "startTime": 56320, "duration": 256, "velocity": 80}, {"pitch": 30, "startTime": 56576, "duration": 256, "velocity": 48}, {"pitch": 38, "startTime": 56832, "duration": 256, "velocity": 48}, {"pitch": 38, "startTime": 57088, "duration": 256, "velocity": 80}, {"pitch": 38, "startTime": 57344, "duration": 256, "velocity": 48}, {"pitch": 38, "startTime": 57600, "duration": 256, "velocity": 80}, {"pitch": 38, "startTime": 57856, "duration": 256, "velocity": 48}, {"pitch": 38, "startTime": 58112, "duration": 256, "velocity": 48}, {"pitch": 38, "startTime": 58368, "duration": 256, "velocity": 80}, {"pitch": 37, "startTime": 58624, "duration": 256, "velocity": 48}, {"pitch": 37, "startTime": 58880, "duration": 256, "velocity": 80}, {"pitch": 35, "startTime": 59136, "duration": 256, "velocity": 48}, {"pitch": 33, "startTime": 59392, "duration": 256, "velocity": 48}, {"pitch": 33, "startTime": 59648, "duration": 256, "velocity": 80}, {"pitch": 33, "startTime": 59904, "duration": 256, "velocity": 48}, {"pitch": 31, "startTime": 60160, "duration": 256, "velocity": 80}, {"pitch": 30, "startTime": 60416, "duration": 256, "velocity": 48}, {"pitch": 30, "startTime": 60672, "duration": 256, "velocity": 48}, {"pitch": 30, "startTime": 60928, "duration": 256, "velocity": 80}, {"pitch": 35, "startTime": 61184, "duration": 256, "velocity": 48}, {"pitch": 33, "startTime": 61440, "duration": 256, "velocity": 80}, {"pitch": 33, "startTime": 61696, "duration": 256, "velocity": 48}, {"pitch": 31, "startTime": 61952, "duration": 256, "velocity": 48}, {"pitch": 31, "startTime": 62208, "duration": 256, "velocity": 80}, {"pitch": 30, "startTime": 62464, "duration": 256, "velocity": 48}, {"pitch": 30, "startTime": 62720, "duration": 256, "velocity": 80}, {"pitch": 30, "startTime": 62976, "duration": 256, "velocity": 48}, {"pitch": 42, "startTime": 63232, "duration": 256, "velocity": 48}, {"pitch": 42, "startTime": 63488, "duration": 256, "velocity": 80}, {"pitch": 42, "startTime": 63744, "duration": 256, "velocity": 48}, {"pitch": 40, "startTime": 64000, "duration": 256, "velocity": 80}, {"pitch": 38, "startTime": 64256, "duration": 256, "velocity": 48}, {"pitch": 38, "startTime": 64512, "duration": 256, "velocity": 48}, {"pitch": 37, "startTime": 64768, "duration": 256, "velocity": 80}, {"pitch": 37, "startTime": 65024, "duration": 256, "velocity": 48}, {"pitch": 35, "startTime": 65280, "duration": 256, "velocity": 80}, {"pitch": 33, "startTime": 65536, "duration": 256, "velocity": 48}, {"pitch": 31, "startTime": 65792, "duration": 256, "velocity": 48}, {"pitch": 31, "startTime": 66048, "duration": 256, "velocity": 80}, {"pitch": 30, "startTime": 66304, "duration": 256, "velocity": 48}, {"pitch": 43, "startTime": 66560, "duration": 256, "velocity": 80}, {"pitch": 43, "startTime": 66816, "duration": 256, "velocity": 48}, {"pitch": 43, "startTime": 67072, "duration": 256, "velocity": 48}, {"pitch": 43, "startTime": 67328, "duration": 256, "velocity": 80}, {"pitch": 43, "startTime": 67584, "duration": 256, "velocity": 48}, {"pitch": 43, "startTime": 67840, "duration": 256, "velocity": 80}, {"pitch": 42, "startTime": 68096, "duration": 256, "velocity": 48}, {"pitch": 40, "startTime": 68352, "duration": 256, "velocity": 48}, {"pitch": 38, "startTime": 68608, "duration": 256, "velocity": 80}, {"pitch": 38, "startTime": 68864, "duration": 256, "velocity": 48}, {"pitch": 38, "startTime": 69120, "duration": 256, "velocity": 80}, {"pitch": 37, "startTime": 69376, "duration": 256, "velocity": 48}, {"pitch": 37, "startTime": 69632, "duration": 256, "velocity": 48}, {"pitch": 37, "startTime": 69888, "duration": 256, "velocity": 80}, {"pitch": 37, "startTime": 70144, "duration": 256, "velocity": 48}, {"pitch": 35, "startTime": 70400, "duration": 256, "velocity": 80}, {"pitch": 33, "startTime": 70656, "duration": 256, "velocity": 48}, {"pitch": 31, "startTime": 70912, "duration": 256, "velocity": 48}, {"pitch": 31, "startTime": 71168, "duration": 256, "velocity": 80}, {"pitch": 30, "startTime": 71424, "duration": 256, "velocity": 48}, {"pitch": 45, "startTime": 71680, "duration": 256, "velocity": 80}, {"pitch": 43, "startTime": 71936, "duration": 256, "velocity": 48}, {"pitch": 43, "startTime": 72192, "duration": 256, "velocity": 48}, {"pitch": 42, "startTime": 72448, "duration": 256, "velocity": 80}, {"pitch": 40, "startTime": 72704, "duration": 256, "velocity": 48}, {"pitch": 40, "startTime": 72960, "duration": 256, "velocity": 80}, {"pitch": 38, "startTime": 73216, "duration": 256, "velocity": 48}, {"pitch": 37, "startTime": 73472, "duration": 256, "velocity": 48}, {"pitch": 37, "startTime": 73728, "duration": 256, "velocity": 80}, {"pitch": 35, "startTime": 73984, "duration": 256, "velocity": 48}, {"pitch": 33, "startTime": 74240, "duration": 256, "velocity": 80}, {"pitch": 33, "startTime": 74496, "duration": 256, "velocity": 48}, {"pitch": 31, "startTime": 74752, "duration": 256, "velocity": 48}, {"pitch": 33, "startTime": 75008, "duration": 256, "velocity": 80}, {"pitch": 33, "startTime": 75264, "duration": 256, "velocity": 48}, {"pitch": 33, "startTime": 75520, "duration": 256, "velocity": 80}, {"pitch": 31, "startTime": 75776, "duration": 256, "velocity": 48}, {"pitch": 31, "startTime": 76032, "duration": 256, "velocity": 48}, {"pitch": 30, "startTime": 76288, "duration": 256, "velocity": 80}, {"pitch": 31, "startTime": 76544, "duration": 256, "velocity": 48}]}]